grf
version=1
nRows=31
nColumns=19
inDegrees=yes
endheader
time	ground_force_1_vx	ground_force_1_vy	ground_force_1_vz	ground_force_1_px	ground_force_1_py	ground_force_1_pz	ground_moment_1_mx	ground_moment_1_my	ground_moment_1_mz	ground_force_2_vx	ground_force_2_vy	ground_force_2_vz	ground_force_2_px	ground_force_2_py	ground_force_2_pz	ground_moment_2_mx	ground_moment_2_my	ground_moment_2_mz
1.921000	17.490490	1334.195435	-415.437500	0.138087	0.000000	-0.773102	0.000000	13.000241	0.000000	5.118525	1251.521240	410.249268	0.156901	0.000000	-1.567005	0.000000	-7.407946	-0.000000
1.922000	17.653753	1338.820679	-415.157043	0.139211	0.000000	-0.775105	0.000000	12.525642	0.000000	4.475657	1248.653564	410.612305	0.157082	0.000000	-1.568886	0.000000	-7.359895	-0.000000
1.923000	18.100250	1336.751099	-415.718658	0.138486	0.000000	-0.774063	0.000000	12.607873	0.000000	4.434381	1248.168945	411.981445	0.156468	0.000000	-1.566988	0.000000	-7.977021	-0.000000
1.924000	17.125626	1335.287964	-415.721008	0.139521	0.000000	-0.774455	0.000000	12.602316	0.000000	4.918361	1261.089355	410.733093	0.157645	0.000000	-1.567591	0.000000	-7.124806	-0.000000
1.925000	17.086521	1331.800781	-416.283813	0.138554	0.000000	-0.775914	0.000000	12.964494	0.000000	4.636201	1253.592773	410.813843	0.157457	0.000000	-1.567796	0.000000	-7.303450	0.000000
1.926000	17.327610	1334.170532	-416.326050	0.139319	0.000000	-0.774331	0.000000	12.733212	0.000000	3.471254	1253.747803	411.498291	0.157066	0.000000	-1.568909	0.000000	-7.384765	-0.000000
1.927000	17.449486	1341.221313	-416.323486	0.139698	0.000000	-0.774569	-0.000000	12.431139	0.000000	5.240002	1253.441162	411.377045	0.157673	0.000000	-1.567754	0.000000	-7.204892	-0.000000
1.928000	17.691715	1339.303467	-416.244080	0.139076	0.000000	-0.775268	0.000000	12.726404	0.000000	4.635374	1248.019409	411.297150	0.156975	0.000000	-1.568578	0.000000	-7.683093	-0.000000
1.929000	14.931871	1340.262329	-416.889069	0.139336	0.000000	-0.775345	0.000000	13.516894	0.000000	5.239310	1252.640381	411.217468	0.157172	0.000000	-1.568428	0.000000	-7.596938	-0.000000
1.930000	17.894459	1338.194214	-416.446777	0.138932	0.000000	-0.774268	0.000000	12.780443	0.000000	4.394902	1251.210205	410.654266	0.157810	0.000000	-1.568019	-0.000000	-7.262179	-0.000000
1.931000	14.064745	1334.492310	-416.848907	0.139159	0.000000	-0.774336	0.000000	12.750967	0.000000	4.675957	1258.860474	411.218933	0.157713	0.000000	-1.567960	0.000000	-7.539549	0.000000
1.932000	17.528072	1338.980713	-417.051392	0.139600	0.000000	-0.773969	0.000000	12.707157	0.000000	5.198037	1253.926025	410.655212	0.158038	0.000000	-1.568550	0.000000	-7.406765	-0.000000
1.933000	17.367096	1331.755005	-417.936401	0.139284	0.000000	-0.774104	0.000000	12.838402	0.000000	5.518987	1256.466309	412.504486	0.157801	0.000000	-1.567926	0.000000	-7.634596	-0.000000
1.934000	17.730438	1350.551147	-414.870514	0.138955	0.000000	-0.774331	0.000000	12.578952	0.000000	5.157866	1262.855957	410.535065	0.159425	0.000000	-1.569423	-0.000000	-6.865474	-0.000000
1.935000	17.527695	1344.744263	-417.411224	0.139658	0.000000	-0.774704	0.000000	12.622783	0.000000	5.036251	1251.370850	411.058289	0.157733	0.000000	-1.568023	0.000000	-7.743383	-0.000000
1.936000	18.135168	1341.697388	-416.971008	0.139729	0.000000	-0.773763	0.000000	12.540925	0.000000	4.634960	1252.491211	410.656281	0.158534	0.000000	-1.567765	0.000000	-7.298585	-0.000000
1.937000	17.367855	1335.303101	-417.734192	0.139155	0.000000	-0.773664	-0.000000	12.805738	0.000000	3.186888	1253.775269	410.736603	0.158400	0.000000	-1.566338	0.000000	-7.357297	0.000000
1.938000	17.044758	1341.863892	-418.783386	0.139368	0.000000	-0.773726	0.000000	12.890679	0.000000	4.674579	1256.793213	412.103638	0.158358	0.000000	-1.568080	0.000000	-7.471517	0.000000
1.939000	17.085762	1337.232422	-419.674011	0.139146	0.000000	-0.773177	0.000000	13.182320	0.000000	2.782285	1253.765137	410.656921	0.158445	0.000000	-1.567869	0.000000	-7.675364	-0.000000
1.940000	16.842010	1350.975952	-419.065002	0.140323	0.000000	-0.775173	-0.000000	12.571717	0.000000	4.232426	1255.532593	411.100281	0.159274	0.000000	-1.569027	0.000000	-7.192835	-0.000000
1.941000	18.296909	1343.297974	-418.542664	0.140035	0.000000	-0.773849	-0.000000	12.510147	0.000000	3.587765	1252.004272	410.135071	0.158219	0.000000	-1.567575	0.000000	-7.710027	-0.000000
1.942000	18.865660	1344.259155	-418.703766	0.139812	0.000000	-0.774579	0.000000	12.429804	0.000000	4.030607	1248.193726	410.939941	0.159395	0.000000	-1.567789	0.000000	-7.272090	-0.000000
1.943000	17.406960	1345.222900	-419.712799	0.139831	0.000000	-0.773720	0.000000	12.893171	0.000000	3.788205	1249.954834	410.335876	0.159183	0.000000	-1.566953	0.000000	-7.379908	0.000000
1.944000	17.727776	1350.185913	-419.190186	0.140049	0.000000	-0.775021	0.000000	12.902766	0.000000	3.064170	1247.875488	410.096375	0.158672	0.000000	-1.569367	0.000000	-7.738534	-0.000000
1.945000	17.443781	1352.925903	-420.761108	0.139888	0.000000	-0.773120	-0.000000	13.109093	0.000000	5.561918	1261.433228	413.631927	0.159651	0.000000	-1.569637	0.000000	-6.726817	-0.000000
1.946000	17.488209	1343.617065	-419.108917	0.140048	0.000000	-0.773476	0.000000	12.747687	0.000000	2.983966	1258.243530	410.136017	0.159603	0.000000	-1.569136	0.000000	-7.277630	-0.000000
1.947000	17.932423	1355.152100	-418.024902	0.139638	0.000000	-0.776103	0.000000	13.009656	0.000000	2.781733	1245.968140	411.021423	0.159058	0.000000	-1.569048	0.000000	-7.736007	-0.000000
1.948000	17.687149	1347.777466	-419.349915	0.140382	0.000000	-0.774174	-0.000000	12.713662	0.000000	2.943244	1251.710693	411.182617	0.159925	0.000000	-1.568969	0.000000	-7.342954	-0.000000
1.949000	20.633003	1348.744263	-422.321411	0.140017	0.000000	-0.774337	-0.000000	12.481106	0.000000	2.861662	1245.645996	410.901611	0.159420	0.000000	-1.568604	0.000000	-7.716594	-0.000000
1.950000	17.399731	1343.123535	-420.075684	0.140210	0.000000	-0.773673	0.000000	13.078179	0.000000	2.500127	1261.117188	410.580627	0.159767	0.000000	-1.569664	0.000000	-7.570964	-0.000000
1.951000	16.603966	1344.105347	-418.425659	0.139681	0.000000	-0.773385	0.000000	12.825477	0.000000	2.781733	1250.430176	410.420410	0.159909	0.000000	-1.568079	0.000000	-7.562537	-0.000000
